<?xml version="1.0" encoding="UTF-8"?>
<svg version="1.1" xmlns="http://www.w3.org/2000/svg" width="1488" height="425">
<path d="M0 0 C0.73428223 0.00060425 1.46856445 0.0012085 2.22509766 0.00183105 C71.41243002 0.15483432 145.41560049 18.40815152 199.6875 63.1875 C200.53538086 63.88311035 200.53538086 63.88311035 201.40039062 64.59277344 C235.02350268 92.34018178 261.25798178 129.55601457 265.9765625 173.90429688 C269.44716253 213.56429879 257.0206944 251.11892959 232.125 282 C222.14625045 293.84098098 211.83374793 304.56702813 199.6875 314.1875 C198.27404297 315.34378906 198.27404297 315.34378906 196.83203125 316.5234375 C142.64373182 359.84603653 69.55939659 377.48941291 1.25 377.375 C0.51460999 377.37406342 -0.22078003 377.37312683 -0.97845459 377.37216187 C-76.93502631 377.1646079 -156.50119261 354.68590636 -212.3125 301.1875 C-212.90321289 300.62933594 -213.49392578 300.07117188 -214.10253906 299.49609375 C-234.22573386 280.41104188 -249.64911337 257.69624289 -258.3125 231.1875 C-258.3125 230.5275 -258.3125 229.8675 -258.3125 229.1875 C-113.7725 228.8575 30.7675 228.5275 179.6875 228.1875 C167.3125 221.2575 167.3125 221.2575 154.6875 214.1875 C143.75 207.75 143.75 207.75 138.33984375 204.53125 C132.1952174 200.88325043 126.0062595 197.3137587 119.8125 193.75 C106.41867172 186.04130763 93.07038663 178.2561773 79.72851562 170.45800781 C67.30667409 163.19896858 54.86591579 155.97445829 42.39892578 148.79321289 C34.15977923 144.04449076 25.94146209 139.26103092 17.7331543 134.45922852 C12.54891157 131.42944308 7.35516294 128.41780168 2.14453125 125.43359375 C-11.51026541 117.61009474 -24.99994602 109.58131626 -38.3125 101.1875 C-37.63264038 104.82814285 -36.08619455 107.59504407 -34.2421875 110.7890625 C-33.60015381 111.90667969 -32.95812012 113.02429688 -32.29663086 114.17578125 C-31.59369324 115.3880823 -30.89064697 116.60032036 -30.1875 117.8125 C-29.46645084 119.06355584 -28.74583481 120.3148614 -28.02563477 121.56640625 C-26.53531413 124.15427479 -25.04210433 126.7404424 -23.54638672 129.32519531 C-21.41232618 133.01322384 -19.285378 136.70531054 -17.16015625 140.3984375 C-14.68073333 144.70448402 -12.2000129 149.00976691 -9.71484375 153.3125 C-9.1616748 154.2715625 -8.60850586 155.230625 -8.03857422 156.21875 C-6.81148581 158.32927263 -5.57222904 160.43274086 -4.32470703 162.53125 C-3.68259277 163.6140625 -3.04047852 164.696875 -2.37890625 165.8125 C-1.49827515 167.28589844 -1.49827515 167.28589844 -0.59985352 168.7890625 C0.6875 171.1875 0.6875 171.1875 0.6875 173.1875 C-86.4325 173.1875 -173.5525 173.1875 -263.3125 173.1875 C-259.37553154 129.88084695 -234.32754093 93.98968166 -201.99560547 66.19580078 C-197.25225698 62.31070289 -192.33083837 58.70683794 -187.3125 55.1875 C-186.70696289 54.75324707 -186.10142578 54.31899414 -185.47753906 53.87158203 C-140.99864001 22.07830871 -85.38390314 5.44947559 -31.3125 1.1875 C-29.69516968 1.05831177 -29.69516968 1.05831177 -28.04516602 0.92651367 C-18.69006973 0.23720371 -9.37713286 -0.01445766 0 0 Z " fill="#FFFFFF" transform="translate(338.3125,23.8125)"/>
<path d="M0 0 C8 0 8 0 11.16015625 2.34375 C12.1488524 3.37589085 13.11622038 4.42883722 14.0625 5.5 C14.54009766 6.0053125 15.01769531 6.510625 15.50976562 7.03125 C17.60918783 9.27362352 19.63354149 11.57492122 21.63916016 13.90136719 C25.96574638 18.91602217 30.52376438 23.61194042 35.25 28.25 C36.6534099 29.62780023 38.05453717 31.00793021 39.453125 32.390625 C40.06317383 32.98907227 40.67322266 33.58751953 41.30175781 34.20410156 C43.0357947 36.03785305 44.52585452 37.95376445 46 40 C49.07767309 38.65641368 50.83652142 37.29003846 52.9375 34.6875 C56.26487 30.74208719 59.82883794 27.12013754 63.5 23.5 C67.03347665 20.00738432 70.51666736 16.52725776 73.75 12.75 C74.83241729 11.49920668 75.91579693 10.2492457 77 9 C77.70511719 8.18015625 78.41023438 7.3603125 79.13671875 6.515625 C79.89597656 5.68546875 80.65523437 4.8553125 81.4375 4 C82.11683594 3.236875 82.79617188 2.47375 83.49609375 1.6875 C86 0 86 0 94 0 C94 31.35 94 62.7 94 95 C87.07 95 80.14 95 73 95 C72.67 77.18 72.34 59.36 72 41 C68.535 44.96 68.535 44.96 65 49 C63.77174832 50.35043759 62.53707962 51.69515115 61.2890625 53.02734375 C60.68449219 53.67380859 60.07992188 54.32027344 59.45703125 54.98632812 C58.85246094 55.63021484 58.24789063 56.27410156 57.625 56.9375 C56.99722656 57.60845703 56.36945313 58.27941406 55.72265625 58.97070312 C50.08889351 64.98775642 50.08889351 64.98775642 47.27734375 65.375 C42.86944531 64.87063975 41.56410005 63.20635361 38.5625 60 C37.849729 59.25049072 37.849729 59.25049072 37.12255859 58.48583984 C33.8619041 55.03045335 30.69160735 51.48688413 27.6328125 47.8515625 C25.53037081 45.46745398 23.24769154 43.24769154 21 41 C20.67 58.82 20.34 76.64 20 95 C13.4 95 6.8 95 0 95 C0 63.65 0 32.3 0 0 Z " fill="#FFFFFF" transform="translate(1319,81)"/>
<path d="M0 0 C10.80304023 7.41138807 17.82451876 17.90160595 20.80810547 30.69946289 C23.38046152 45.02619498 20.74763052 59.39926602 12.80078125 71.60546875 C6.17899085 80.66433455 -3.79205674 87.52306597 -14.71875 90.37890625 C-25.42187248 91.87896508 -37.84044478 92.43798593 -47.8125 87.8125 C-48.69808594 87.42191406 -49.58367187 87.03132813 -50.49609375 86.62890625 C-63.09352991 80.46122946 -70.89768732 70.76582555 -75.8125 57.8125 C-76.87464359 53.81160039 -77.4851196 49.93506801 -77.8125 45.8125 C-77.915625 44.53375 -78.01875 43.255 -78.125 41.9375 C-77.61141901 27.37596836 -72.37002087 14.06992506 -61.73046875 4.07421875 C-43.69563102 -9.90459122 -19.6515644 -11.55974376 0 0 Z M-51.8125 23.8125 C-56.39383841 31.26320299 -58.08956076 39.73707124 -56.28125 48.33984375 C-53.81170185 57.26511287 -49.40059982 63.47522198 -41.8125 68.8125 C-35.02619072 72.28513394 -27.56714493 73.07233855 -20.203125 71.12109375 C-11.35264622 67.91614765 -6.14008054 63.23210566 -1.7578125 54.9609375 C1.65235197 47.21056371 1.4741481 37.24007434 -1.4375 29.375 C-5.27523175 21.21814856 -10.57529962 16.43686817 -18.8125 12.8125 C-31.94966118 8.71847344 -43.11866935 13.89903124 -51.8125 23.8125 Z " fill="#FFFFFF" transform="translate(1104.8125,87.1875)"/>
<path d="M0 0 C8 0 8 0 10.50390625 1.6875 C11.18324219 2.450625 11.86257813 3.21375 12.5625 4 C13.32433594 4.83273438 14.08617187 5.66546875 14.87109375 6.5234375 C15.92490234 7.74933594 15.92490234 7.74933594 17 9 C17.52722656 9.61101562 18.05445313 10.22203125 18.59765625 10.8515625 C19.66362367 12.08928426 20.72724296 13.32903051 21.7890625 14.5703125 C24.90897845 17.99891272 28.20677977 21.23865221 31.5 24.5 C39.42655023 32.35027839 39.42655023 32.35027839 42.5 36 C48.32093077 42.65249231 54.74944447 48.74944447 61 55 C61.33 37.18 61.66 19.36 62 1 C68.6 1 75.2 1 82 1 C82 32.35 82 63.7 82 96 C74 96 74 96 71.45874023 94.3828125 C70.74919189 93.63773437 70.03964355 92.89265625 69.30859375 92.125 C68.50873047 91.30386719 67.70886719 90.48273438 66.88476562 89.63671875 C66.07716797 88.76660156 65.26957031 87.89648438 64.4375 87 C63.62603516 86.16082031 62.81457031 85.32164062 61.97851562 84.45703125 C58.46142877 80.79517326 55.03958258 77.07476717 51.74609375 73.2109375 C46.3913545 67.02144085 40.44152966 61.37501884 34.625 55.625 C32.26015669 53.28672085 29.89863758 50.94515631 27.5390625 48.6015625 C26.9974649 48.06826324 26.45586731 47.53496399 25.89785767 46.98550415 C22.1127595 43.225519 22.1127595 43.225519 21 41 C20.67 58.82 20.34 76.64 20 95 C13.4 95 6.8 95 0 95 C0 63.65 0 32.3 0 0 Z " fill="#FFFFFF" transform="translate(684,81)"/>
<path d="M0 0 C22.11 0 44.22 0 67 0 C67 5.94 67 11.88 67 18 C51.82 18 36.64 18 21 18 C21 24.6 21 31.2 21 38 C34.53 38 48.06 38 62 38 C62 43.61 62 49.22 62 55 C48.47 55 34.94 55 21 55 C21 61.93 21 68.86 21 76 C36.18 76 51.36 76 67 76 C67 81.94 67 87.88 67 94 C44.89 94 22.78 94 0 94 C0 62.98 0 31.96 0 0 Z " fill="#FFFFFF" transform="translate(827,82)"/>
<path d="M0 0 C6.6 0 13.2 0 20 0 C20.01458252 1.74015381 20.02916504 3.48030762 20.04418945 5.27319336 C20.09604619 11.05283272 20.16138633 16.83223724 20.23571491 22.61162472 C20.28025108 26.1122344 20.31954269 29.61273219 20.34643555 33.11352539 C20.37766317 37.14758877 20.43244401 41.18104536 20.48828125 45.21484375 C20.49467117 46.45894516 20.5010611 47.70304657 20.50764465 48.98484802 C20.64498587 57.17602368 21.05770215 64.45415387 26.4375 70.9375 C31.92358665 75.35313072 37.38359172 76.34680864 44.33984375 75.82421875 C50.05849241 74.85644744 54.30795457 72.53068179 58 68 C59.87660823 64.1153518 60.26721623 60.94318374 60.31884766 56.64916992 C60.33871735 55.3882402 60.35858704 54.12731049 60.37905884 52.82817078 C60.39093337 51.46227188 60.40259633 50.09637113 60.4140625 48.73046875 C60.43278451 47.32512793 60.45235869 45.91979822 60.4727478 44.51448059 C60.52396617 40.82714406 60.56364666 37.13977113 60.60089111 33.45227051 C60.64099559 29.68488638 60.69205844 25.91765234 60.7421875 22.15039062 C60.83882485 14.76702248 60.92225465 7.38359567 61 0 C67.93 0 74.86 0 82 0 C82.04538682 7.78069761 82.0819938 15.56132139 82.10362434 23.3421154 C82.11401178 26.95599201 82.12807748 30.56977246 82.15087891 34.18359375 C82.17278889 37.67844701 82.18460641 41.17320845 82.18975449 44.66812515 C82.19518715 46.6343209 82.21077029 48.60048029 82.22659302 50.56661987 C82.22821999 63.71180804 80.56463114 75.35010425 71.3125 85.3125 C62.92148385 93.14939244 52.49855984 96.39637438 41.1875 96.3125 C40.39214844 96.30686035 39.59679688 96.3012207 38.77734375 96.29541016 C27.90961237 96.0712188 18.33647538 92.79257191 10.1796875 85.3359375 C3.30312188 77.76825976 -0.26690932 68.46224016 -0.22705078 58.23852539 C-0.22689972 56.93770523 -0.22674866 55.63688507 -0.22659302 54.29664612 C-0.21638281 52.89698123 -0.20595087 51.49731795 -0.1953125 50.09765625 C-0.19157733 48.65034685 -0.18873274 47.20303489 -0.18673706 45.75572205 C-0.17914024 41.96634813 -0.15952625 38.17713015 -0.1373291 34.38781738 C-0.11678503 30.51312366 -0.10771712 26.63840449 -0.09765625 22.76367188 C-0.07627614 15.17570229 -0.04112679 7.58789296 0 0 Z " fill="#FFFFFF" transform="translate(1178,82)"/>
<path d="M0 0 C48.98148148 0 48.98148148 0 59.0625 8.375 C64.92871919 15.08538244 65.57224386 20.84957194 65.33984375 29.625 C64.6718185 36.25918176 62.15078257 40.15285581 57.4375 44.75 C49.35564609 51.29316453 40.13221141 52.64634515 30 53 C30.60585937 53.54527344 31.21171875 54.09054687 31.8359375 54.65234375 C38.41796875 60.57617188 38.41796875 60.57617188 45 66.5 C45.82242187 67.23992187 46.64484375 67.97984375 47.4921875 68.7421875 C49.18592894 70.26708244 50.87861169 71.79315402 52.5703125 73.3203125 C57.16782768 77.46791794 61.78841638 81.57645901 66.50390625 85.58984375 C68 87 68 87 69 89 C53.18113024 91.6750072 53.18113024 91.6750072 46.41503906 87.34619141 C41.43613459 83.09669939 37.21248758 78.21464149 32.99023438 73.22998047 C31.113384 71.12704237 29.1868779 69.30264392 27.046875 67.47265625 C22.48096046 63.55460797 18.25433179 59.25433179 14 55 C13.67 66.22 13.34 77.44 13 89 C8.71 89 4.42 89 0 89 C0 59.63 0 30.26 0 0 Z M13 12 C13 20.91 13 29.82 13 39 C23.21638227 42.40546076 34.97710467 43.80468853 45 39 C48.40294462 36.80226493 50.80122043 34.92327858 52 31 C52.42537199 25.64031296 52.48854141 22.33060313 49 18 C43.91776286 13.19247838 38.85636706 11.73343951 31.9453125 11.8046875 C30.94516113 11.80968262 29.94500977 11.81467773 28.91455078 11.81982422 C27.03872314 11.84713623 27.03872314 11.84713623 25.125 11.875 C19.123125 11.936875 19.123125 11.936875 13 12 Z " fill="#FFFFFF" transform="translate(1248,260)"/>
<path d="M0 0 C20.13 0 40.26 0 61 0 C61 3.96 61 7.92 61 12 C45.16 12 29.32 12 13 12 C13 20.25 13 28.5 13 37 C26.86 37 40.72 37 55 37 C55 41.29 55 45.58 55 50 C41.14 50 27.28 50 13 50 C13 58.91 13 67.82 13 77 C28.84 77 44.68 77 61 77 C61 80.96 61 84.92 61 89 C40.87 89 20.74 89 0 89 C0 59.63 0 30.26 0 0 Z " fill="#FFFFFF" transform="translate(1170,259)"/>
<path d="M0 0 C20.13 0 40.26 0 61 0 C61 3.96 61 7.92 61 12 C44.83 12 28.66 12 12 12 C12 20.25 12 28.5 12 37 C26.19 37 40.38 37 55 37 C55 41.29 55 45.58 55 50 C40.81 50 26.62 50 12 50 C12 58.91 12 67.82 12 77 C28.17 77 44.34 77 61 77 C61 80.96 61 84.92 61 89 C40.87 89 20.74 89 0 89 C0 59.63 0 30.26 0 0 Z " fill="#FFFFFF" transform="translate(1086,259)"/>
<path d="M0 0 C2.31 0 4.62 0 7 0 C19.61689157 26.4796486 32.23223001 52.95730644 44.3125 79.6875 C44.69229004 80.52635742 45.07208008 81.36521484 45.46337891 82.22949219 C48 87.87797575 48 87.87797575 48 89 C42.72 89 37.44 89 32 89 C30.65985343 86.06543799 29.32768473 83.12769372 28 80.1875 C27.6184375 79.35412109 27.236875 78.52074219 26.84375 77.66210938 C26.4828125 76.85966797 26.121875 76.05722656 25.75 75.23046875 C25.24726562 74.12288208 25.24726562 74.12288208 24.734375 72.99291992 C24 71 24 71 24 68 C10.47 68 -3.06 68 -17 68 C-17.99 70.97 -18.98 73.94 -20 77 C-21.8688506 81.07873232 -23.93748822 85.01247723 -26 89 C-30.95 89 -35.9 89 -41 89 C-39.06301721 82.86647327 -36.81310616 77.13739424 -34.0078125 71.35546875 C-33.62528824 70.55565079 -33.24276398 69.75583282 -32.84864807 68.93177795 C-31.61204531 66.34811159 -30.36848182 63.76786147 -29.125 61.1875 C-27.40256493 57.59358677 -25.68376815 53.99793713 -23.96484375 50.40234375 C-23.32591942 49.0677562 -23.32591942 49.0677562 -22.67408752 47.70620728 C-18.43122752 38.83459175 -14.29075383 29.91747407 -10.18603516 20.98120117 C-6.92950541 13.91496703 -3.51841323 6.93954315 0 0 Z M3 22 C1.00150987 26.51862263 -0.99219318 31.03931457 -2.98144531 35.56201172 C-3.65916131 37.10100534 -4.33819312 38.63942021 -5.01855469 40.17724609 C-5.99498599 42.38489179 -6.9667014 44.59456015 -7.9375 46.8046875 C-8.24373291 47.49432587 -8.54996582 48.18396423 -8.86547852 48.89450073 C-10.46148457 52.31820873 -10.46148457 52.31820873 -11 56 C-1.43 56 8.14 56 18 56 C16.53865997 51.61597991 15.00202904 47.51534394 13.1796875 43.2890625 C12.78440353 42.36956314 12.78440353 42.36956314 12.38113403 41.43148804 C11.54803974 39.49499895 10.71158087 37.55998502 9.875 35.625 C9.30576555 34.30348189 8.73675298 32.98186819 8.16796875 31.66015625 C6.78120828 28.4389954 5.39142874 25.21914754 4 22 C3.67 22 3.34 22 3 22 Z " fill="#FFFFFF" transform="translate(1364,260)"/>
<path d="M0 0 C2.31 0 4.62 0 7 0 C17.08245829 21.2954897 27.12760344 42.60611467 37 64 C37.5347998 65.15741699 38.06959961 66.31483398 38.62060547 67.50732422 C40.18708684 70.89956339 41.75047495 74.29320686 43.3125 77.6875 C43.7873584 78.71649414 44.2622168 79.74548828 44.75146484 80.80566406 C45.18023926 81.73991211 45.60901367 82.67416016 46.05078125 83.63671875 C46.42887939 84.45873779 46.80697754 85.28075684 47.1965332 86.12768555 C48 88 48 88 48 89 C42.72 89 37.44 89 32 89 C30.65985343 86.06543799 29.32768473 83.12769372 28 80.1875 C27.6184375 79.35412109 27.236875 78.52074219 26.84375 77.66210938 C26.4828125 76.85966797 26.121875 76.05722656 25.75 75.23046875 C25.24726562 74.12288208 25.24726562 74.12288208 24.734375 72.99291992 C24 71 24 71 24 68 C10.47 68 -3.06 68 -17 68 C-17.66 69.98 -18.32 71.96 -19 74 C-19.54946222 75.30038364 -20.12223157 76.59137776 -20.7265625 77.8671875 C-21.190625 78.85332031 -21.190625 78.85332031 -21.6640625 79.859375 C-21.98117187 80.52453125 -22.29828125 81.1896875 -22.625 81.875 C-22.94984375 82.56335938 -23.2746875 83.25171875 -23.609375 83.9609375 C-24.40323472 85.64205219 -25.20119558 87.32122921 -26 89 C-30.95 89 -35.9 89 -41 89 C-40.28681256 85.43406282 -39.83660869 83.29553933 -38.34863281 80.20483398 C-38.00980576 79.49374985 -37.6709787 78.78266571 -37.32188416 78.05003357 C-36.95269363 77.28973343 -36.58350311 76.52943329 -36.203125 75.74609375 C-35.81786148 74.94079727 -35.43259796 74.13550079 -35.03565979 73.30580139 C-33.77871878 70.68063043 -32.51430303 68.05913209 -31.25 65.4375 C-29.50665886 61.80195549 -27.76711027 58.16459993 -26.02734375 54.52734375 C-25.59479782 53.62442596 -25.16225189 52.72150818 -24.71659851 51.79122925 C-21.01558808 44.05758213 -17.39909591 36.28721182 -13.8125 28.5 C-9.38602556 18.90619253 -4.8299865 9.39731513 0 0 Z M3 23 C-0.7336273 30.89849422 -4.40877478 38.82003344 -7.9375 46.8125 C-8.24373291 47.49957031 -8.54996582 48.18664062 -8.86547852 48.89453125 C-10.46227457 52.31789306 -10.46227457 52.31789306 -11 56 C-1.43 56 8.14 56 18 56 C14.89357399 47.92329237 11.78288672 40.03034857 8.1875 32.1875 C7.78080078 31.29224609 7.37410156 30.39699219 6.95507812 29.47460938 C5.97337572 27.31486408 4.98836693 25.1567013 4 23 C3.67 23 3.34 23 3 23 Z " fill="#FFFFFF" transform="translate(723,259)"/>
<path d="M0 0 C2.31 0 4.62 0 7 0 C12.48935983 10.68020463 17.60286255 21.51892591 22.63720703 32.42016602 C27.90405694 43.82223433 33.25382585 55.1845029 38.61914062 66.54052734 C48 86.40989563 48 86.40989563 48 89 C43.05 89 38.1 89 33 89 C31.88625 86.834375 30.7725 84.66875 29.625 82.4375 C29.10413818 81.43674438 29.10413818 81.43674438 28.57275391 80.41577148 C28.29351074 79.86477783 28.01426758 79.31378418 27.7265625 78.74609375 C27.30238037 77.92129517 27.30238037 77.92129517 26.86962891 77.07983398 C25.64515858 74.15134922 24.87201136 71.05203977 24 68 C10.47 68 -3.06 68 -17 68 C-17.99 70.97 -18.98 73.94 -20 77 C-21.8688506 81.07873232 -23.93748822 85.01247723 -26 89 C-30.95 89 -35.9 89 -41 89 C-39.43148423 84.2944527 -37.67561322 79.96902028 -35.54296875 75.5234375 C-35.03398796 74.45126732 -35.03398796 74.45126732 -34.51472473 73.35743713 C-33.78675859 71.82474036 -33.05727747 70.29276236 -32.32641602 68.76144409 C-30.39170471 64.70751887 -28.46803959 60.64835332 -26.54296875 56.58984375 C-25.96239212 55.36700432 -25.96239212 55.36700432 -25.37008667 54.11946106 C-21.87144579 46.74473927 -18.42673759 39.34584945 -15 31.9375 C-10.05944345 21.26302402 -5.06058503 10.61807505 0 0 Z M3 23 C1.00140851 27.37609528 -0.99229072 31.75437271 -2.98144531 36.13476562 C-3.65913291 37.62528849 -4.33816455 39.11520102 -5.01855469 40.60449219 C-5.9950611 42.74255726 -6.96674766 44.88275492 -7.9375 47.0234375 C-8.24373291 47.69120209 -8.54996582 48.35896667 -8.86547852 49.04696655 C-10.46850282 52.38932799 -10.46850282 52.38932799 -11 56 C-1.43 56 8.14 56 18 56 C15.58979025 48.76937075 12.96772152 41.9602468 9.9375 35 C9.49083984 33.95199219 9.04417969 32.90398437 8.58398438 31.82421875 C8.15279297 30.83035156 7.72160156 29.83648437 7.27734375 28.8125 C6.88796631 27.91144531 6.49858887 27.01039063 6.09741211 26.08203125 C5.17707298 23.84573812 5.17707298 23.84573812 3 23 Z " fill="#FFFFFF" transform="translate(936,259)"/>
<path d="M0 0 C6.6 0 13.2 0 20 0 C20.09066415 12.29231471 20.16392494 24.58440435 20.20724869 36.87697887 C20.22805048 42.5860005 20.25623195 48.29477986 20.30175781 54.00366211 C20.34548076 59.52150642 20.36919271 65.0391189 20.37950897 70.55712318 C20.3868531 72.65368609 20.40119342 74.75023748 20.42292023 76.84670067 C20.70012405 104.72411472 20.70012405 104.72411472 10.90625 116.07421875 C3.86356396 123.18906346 -5.0509134 128.33285576 -15 130 C-16.17620825 127.58757287 -17.3410956 125.17072309 -18.5 122.75 C-18.83386719 122.06808594 -19.16773438 121.38617188 -19.51171875 120.68359375 C-21.19374744 117.1479008 -22 114.98070714 -22 111 C-21.04738281 110.56429687 -20.09476563 110.12859375 -19.11328125 109.6796875 C-17.84598806 109.07889665 -16.57908122 108.47729037 -15.3125 107.875 C-14.68666016 107.59140625 -14.06082031 107.3078125 -13.41601562 107.015625 C-8.7965822 104.79055759 -5.90039568 102.35843242 -3 98 C-1.20974382 92.17381929 -0.69728082 86.89867182 -0.68115234 80.83007812 C-0.67110672 79.95108856 -0.6610611 79.072099 -0.65071106 78.16647339 C-0.62005031 75.28807168 -0.60289183 72.40976224 -0.5859375 69.53125 C-0.56721207 67.52485367 -0.54763764 65.51846511 -0.5272522 63.51208496 C-0.47607028 58.25147084 -0.43637013 52.99083122 -0.39910889 47.73010254 C-0.3589816 42.35385911 -0.30792916 36.97772045 -0.2578125 31.6015625 C-0.1612183 21.06777485 -0.07777161 10.53394345 0 0 Z " fill="#FFFFFF" transform="translate(955,82)"/>
<path d="M0 0 C22.44 0 44.88 0 68 0 C68 6.05089857 67.30599054 7.77333339 63.875 12.1875 C63.20936035 13.08045776 63.20936035 13.08045776 62.53027344 13.99145508 C61.55346728 15.30059566 60.57075551 16.605345 59.58300781 17.90625 C57.35799167 20.84914612 55.18151103 23.82685735 53.00024414 26.80224609 C50.01093431 30.87611372 47.00408637 34.93702359 44 39 C41.64456976 42.18656892 39.29067899 45.37426838 36.9375 48.5625 C36.4331543 49.24401123 35.92880859 49.92552246 35.40917969 50.62768555 C29.20317895 59.03590902 23.11975893 67.52648764 17 76 C33.83 76.33 50.66 76.66 68 77 C68 80.96 68 84.92 68 89 C44.57 89 21.14 89 -3 89 C-3 81.1262229 -3 81.1262229 -0.83203125 78.23046875 C-0.35773682 77.57892822 0.11655762 76.9273877 0.60522461 76.25610352 C1.12737549 75.57346436 1.64952637 74.8908252 2.1875 74.1875 C2.72705322 73.45394287 3.26660645 72.72038574 3.82250977 71.96459961 C4.9631741 70.41471063 6.11037937 68.86961686 7.26367188 67.32910156 C9.48955588 64.34331227 11.66189388 61.32085624 13.83374023 58.2956543 C17.64339655 52.99090072 21.48455913 47.70883715 25.32421875 42.42578125 C25.87730713 41.66322021 26.43039551 40.90065918 27.00024414 40.11499023 C28.02245591 38.70570504 29.04616612 37.29750429 30.07202148 35.89086914 C35.53295603 28.35788755 40.72276251 20.67598181 46 13 C30.82 12.67 15.64 12.34 0 12 C0 8.04 0 4.08 0 0 Z " fill="#FFFFFF" transform="translate(996,259)"/>
<path d="M0 0 C4.29 0 8.58 0 13 0 C13 25.41 13 50.82 13 77 C28.84 77 44.68 77 61 77 C61 80.96 61 84.92 61 89 C40.87 89 20.74 89 0 89 C0 59.63 0 30.26 0 0 Z " fill="#FFFFFF" transform="translate(785,259)"/>
<path d="M0 0 C4.29 0 8.58 0 13 0 C13.06967585 11.82256501 13.12290044 23.64508074 13.15543652 35.46780968 C13.17105643 40.9582688 13.19222744 46.44858688 13.22631836 51.93896484 C13.259043 57.24281821 13.27688062 62.54653636 13.28463173 67.85048294 C13.29015177 69.86856844 13.30093081 71.88664699 13.31719017 73.90467453 C13.33913874 76.74308709 13.34195968 79.5809491 13.34057617 82.41943359 C13.351362 83.24374878 13.36214783 84.06806396 13.3732605 84.9173584 C13.32184231 94.74030338 10.39965173 103.49888315 4 111 C-1.56049303 116.29869958 -9.01977083 122 -17 122 C-17.86627399 120.40233897 -18.71766465 118.79660056 -19.5625 117.1875 C-20.03816406 116.29417969 -20.51382813 115.40085937 -21.00390625 114.48046875 C-22 112 -22 112 -21 109 C-18.92578125 107.7890625 -18.92578125 107.7890625 -16.3125 106.625 C-8.68086892 102.95615596 -3.99530199 99.10327532 -1 91 C-0.46756255 87.90041202 -0.43488941 84.87828601 -0.45410156 81.73828125 C-0.44376389 80.84953812 -0.43342621 79.96079498 -0.42277527 79.04512024 C-0.39349128 76.13405872 -0.39185115 73.22369683 -0.390625 70.3125 C-0.37563363 68.28367803 -0.35890448 66.25486823 -0.34051514 64.22607422 C-0.29693702 58.90622376 -0.27686362 53.58653791 -0.26177979 48.26654053 C-0.24217433 42.82993881 -0.20020816 37.39351398 -0.16015625 31.95703125 C-0.08495742 21.30474219 -0.0346034 10.65249291 0 0 Z " fill="#FFFFFF" transform="translate(868,259)"/>
</svg>
