<svg version="1.1" id="Layer_1" xmlns="http://www.w3.org/2000/svg" xmlns:xlink="http://www.w3.org/1999/xlink" x="0px" y="0px"
	 width="100%" viewBox="0 0 1488 425" enable-background="new 0 0 1488 425" xml:space="preserve">
<path fill="#000000" opacity="1.000000" stroke="none" 
	d="
M971.000000,426.000000 
	C647.375549,426.000000 324.251068,426.000000 1.063305,426.000000 
	C1.063305,284.394073 1.063305,142.788086 1.063305,1.091057 
	C497.000000,1.091057 993.000000,1.091057 1488.966064,1.091057 
	C1488.966064,142.749008 1488.966064,284.374512 1488.966064,426.000000 
	C1316.454712,426.000000 1143.977295,426.000000 971.000000,426.000000 
M492.500000,254.000000 
	C355.405151,254.000000 218.310287,254.000000 81.057159,254.000000 
	C84.687569,268.058258 91.146317,280.403717 98.712967,292.090302 
	C113.147781,314.384644 131.985062,332.653168 153.619492,347.748627 
	C178.382401,365.027008 205.609772,377.380188 234.532394,386.385834 
	C264.360779,395.673553 294.906281,400.249603 325.872803,401.743744 
	C342.137085,402.528442 358.576355,401.222412 374.848541,399.830994 
	C388.398834,398.672272 401.867859,396.283508 415.289062,393.956360 
	C439.951324,389.680115 463.392334,381.499481 486.069641,371.004639 
	C509.707092,360.065369 531.557922,346.313171 550.713013,328.655090 
	C569.303040,311.517914 584.509033,291.725464 594.316833,268.190948 
	C600.574341,253.175400 604.997437,237.689316 604.999817,221.225296 
	C605.000793,214.891541 605.332397,208.535278 604.905212,202.230469 
	C604.489075,196.088089 603.709656,189.905289 602.360168,183.904297 
	C599.252197,170.083588 594.162720,157.025558 587.310242,144.530670 
	C580.230347,131.620972 571.687988,119.814331 561.562256,109.327202 
	C553.142578,100.606956 543.899292,92.573784 534.382629,85.042763 
	C512.613159,67.815536 488.001587,55.584644 462.062531,46.029034 
	C439.478973,37.709538 416.296783,31.563011 392.299103,29.029713 
	C377.326263,27.449112 362.323364,25.593718 347.299896,25.215466 
	C333.490814,24.867794 319.587952,25.826229 305.814575,27.136335 
	C291.109894,28.535025 276.287170,30.027737 261.908234,33.236931 
	C232.063492,39.897888 203.373749,50.036407 176.516876,65.023308 
	C151.444412,79.014442 129.380173,96.575127 110.889702,118.587578 
	C97.366501,134.686630 87.091377,152.602951 81.073730,172.771255 
	C78.662750,180.851700 77.190842,189.212341 75.252724,197.613495 
	C164.254486,197.613495 252.065964,197.613495 340.327972,197.613495 
	C326.589508,173.654144 313.128265,150.178284 299.667023,126.702415 
	C299.971344,126.392166 300.275665,126.081917 300.580017,125.771667 
	C373.662537,168.272293 446.745056,210.772934 521.076721,254.000000 
	C510.808838,254.000000 502.154419,254.000000 492.500000,254.000000 
M1387.009277,102.484398 
	C1379.886108,109.002457 1372.762939,115.520523 1365.542114,122.127853 
	C1364.481445,120.800629 1362.999512,118.628952 1361.206055,116.755432 
	C1351.461670,106.575661 1341.499023,96.600441 1331.921875,86.267250 
	C1328.543213,82.621849 1325.089722,80.985741 1320.214966,82.433647 
	C1320.214966,113.844772 1320.214966,145.240829 1320.214966,176.785675 
	C1326.833008,176.785675 1333.234741,176.785675 1339.939697,176.785675 
	C1339.939697,159.140686 1339.939697,141.705856 1339.939697,123.100151 
	C1342.065552,124.488670 1343.658325,125.167305 1344.767456,126.313904 
	C1350.626953,132.371445 1356.318237,138.591461 1362.162476,144.664047 
	C1365.446777,148.076721 1368.551270,148.100113 1371.803833,144.687485 
	C1378.647949,137.506470 1385.376831,130.215652 1392.919434,122.150414 
	C1392.919434,141.007339 1392.919434,158.837997 1392.919434,176.774048 
	C1400.190674,176.774048 1406.925659,176.774048 1413.805420,176.774048 
	C1413.805420,145.147690 1413.805420,113.747475 1413.805420,82.391281 
	C1409.067871,81.150757 1405.526001,82.238152 1402.351562,86.017845 
	C1397.685791,91.573303 1392.491455,96.684914 1387.009277,102.484398 
M1124.048096,147.559952 
	C1128.389404,137.336975 1128.483032,126.539192 1125.514038,116.344299 
	C1117.441772,88.626060 1094.399658,77.142754 1069.138062,81.386703 
	C1033.537231,87.367661 1019.629517,122.667900 1033.195923,151.846375 
	C1041.940796,170.654663 1057.898804,178.966263 1078.879028,179.203369 
	C1096.996338,179.408127 1117.765625,167.187225 1124.048096,147.559952 
M720.010071,110.516319 
	C713.514465,103.680138 707.158569,96.703377 700.471802,90.059647 
	C696.353699,85.968048 693.149475,79.612030 685.317871,82.455658 
	C685.317871,113.805817 685.317871,145.324875 685.317871,176.683228 
	C692.044678,176.683228 698.450012,176.683228 705.419800,176.683228 
	C705.419800,158.589264 705.419800,140.808624 705.419800,122.256683 
	C707.073303,124.201698 708.026672,125.468483 709.125183,126.593437 
	C724.462769,142.300079 739.922241,157.889786 755.095154,173.753647 
	C758.526733,177.341400 761.938477,178.994827 766.778992,177.569000 
	C766.778992,146.137970 766.778992,114.744377 766.778992,83.219849 
	C760.154846,83.219849 753.753357,83.219849 746.809448,83.219849 
	C746.809448,101.251785 746.809448,119.071053 746.809448,136.890320 
	C746.411743,137.098038 746.014099,137.305771 745.616394,137.513489 
	C737.251831,128.680496 728.887207,119.847504 720.010071,110.516319 
M846.500488,83.000000 
	C840.403442,83.000000 834.306335,83.000000 828.281250,83.000000 
	C828.281250,114.640129 828.281250,145.705627 828.281250,176.721588 
	C850.631348,176.721588 872.698975,176.721588 894.718994,176.721588 
	C894.718994,170.701279 894.718994,164.963379 894.718994,158.835312 
	C879.368958,158.835312 864.295898,158.835312 849.282654,158.835312 
	C849.282654,151.697266 849.282654,144.959808 849.282654,137.831573 
	C862.968384,137.831573 876.375854,137.831573 889.714844,137.831573 
	C889.714844,132.024780 889.714844,126.620125 889.714844,120.826523 
	C876.026550,120.826523 862.619202,120.826523 849.287537,120.826523 
	C849.287537,114.020950 849.287537,107.615463 849.287537,100.822350 
	C864.644531,100.822350 879.717651,100.822350 894.710571,100.822350 
	C894.710571,94.684227 894.710571,88.946014 894.710571,83.000000 
	C878.781433,83.000000 863.140930,83.000000 846.500488,83.000000 
M1238.178955,175.974869 
	C1254.182495,168.294891 1260.977661,155.094086 1260.995972,137.854919 
	C1261.013916,121.025658 1261.005737,104.196358 1260.989868,87.367096 
	C1260.988525,85.942665 1260.842773,84.518356 1260.777588,83.338203 
	C1253.583496,83.338203 1246.841187,83.338203 1240.000000,83.338203 
	C1240.000000,102.830086 1240.004395,121.983955 1239.991333,141.137833 
	C1239.990356,142.629517 1240.191406,144.226181 1239.747803,145.595734 
	C1236.784912,154.743713 1230.828735,158.394821 1219.980957,159.917725 
	C1213.371338,160.845642 1204.744507,155.919022 1201.997437,149.350449 
	C1200.358887,145.432617 1199.212524,141.011719 1199.131348,136.792267 
	C1198.811279,120.135757 1199.006592,103.469482 1198.986694,86.806854 
	C1198.985229,85.552559 1198.794922,84.298485 1198.718140,83.359680 
	C1191.872803,83.359680 1185.461914,83.359680 1179.000000,83.359680 
	C1179.000000,104.045425 1178.637329,124.380867 1179.158325,144.693649 
	C1179.405518,154.325058 1183.458618,163.215729 1191.038330,169.335068 
	C1204.965820,180.579102 1220.786133,181.690262 1238.178955,175.974869 
M1262.000000,339.476929 
	C1262.000000,332.049530 1262.000000,324.622131 1262.000000,316.057190 
	C1264.105103,317.452667 1265.512939,318.113800 1266.576904,319.133698 
	C1276.503296,328.648651 1286.343750,338.253387 1296.293579,347.743622 
	C1297.380371,348.780273 1298.973022,349.839264 1300.372925,349.898529 
	C1306.099243,350.141052 1311.841797,349.999725 1318.860229,349.999725 
	C1304.699585,337.287659 1291.495728,325.434509 1277.644287,313.000000 
	C1281.398926,313.000000 1284.356689,313.279510 1287.244507,312.949188 
	C1297.100586,311.821869 1306.142334,308.497559 1311.034912,299.302582 
	C1318.788818,284.730133 1312.848267,268.660095 1296.694092,263.109009 
	C1292.797119,261.769867 1288.485229,261.185059 1284.345337,261.092194 
	C1272.609253,260.828949 1260.863647,261.000000 1249.299805,261.000000 
	C1249.299805,291.045410 1249.299805,320.430695 1249.299805,349.699860 
	C1253.675659,349.699860 1257.746460,349.699860 1262.000000,349.699860 
	C1262.000000,346.422943 1262.000000,343.444641 1262.000000,339.476929 
M1230.282837,337.003754 
	C1214.874390,337.003754 1199.466064,337.003754 1184.364746,337.003754 
	C1184.364746,327.531219 1184.364746,318.788635 1184.364746,309.666962 
	C1198.469482,309.666962 1212.210205,309.666962 1225.809326,309.666962 
	C1225.809326,305.312592 1225.809326,301.356323 1225.809326,297.012207 
	C1211.884644,297.012207 1198.142578,297.012207 1184.203979,297.012207 
	C1184.203979,288.544220 1184.203979,280.473663 1184.203979,272.005737 
	C1200.125366,272.005737 1215.866699,272.005737 1231.801025,272.005737 
	C1231.801025,267.871094 1231.801025,264.133453 1231.801025,260.198303 
	C1211.536499,260.198303 1191.466675,260.198303 1171.198486,260.198303 
	C1171.198486,289.797241 1171.198486,319.197876 1171.198486,348.799255 
	C1191.461548,348.799255 1211.531128,348.799255 1232.309082,348.799255 
	C1231.940796,344.732971 1231.593262,340.893738 1230.282837,337.003754 
M1148.000000,264.558655 
	C1148.000000,263.123444 1148.000000,261.688202 1148.000000,260.266937 
	C1127.395630,260.266937 1107.326416,260.266937 1087.264648,260.266937 
	C1087.264648,289.935547 1087.264648,319.336456 1087.264648,348.737122 
	C1107.601318,348.737122 1127.672241,348.737122 1147.733643,348.737122 
	C1147.733643,344.728943 1147.733643,340.989227 1147.733643,336.863190 
	C1131.397705,336.863190 1115.323730,336.863190 1099.269897,336.863190 
	C1099.269897,327.724182 1099.269897,318.986115 1099.269897,309.856812 
	C1113.610718,309.856812 1127.686401,309.856812 1141.726562,309.856812 
	C1141.726562,305.381256 1141.726562,301.308350 1141.726562,296.849487 
	C1127.383301,296.849487 1113.308716,296.849487 1099.277100,296.849487 
	C1099.277100,288.376007 1099.277100,280.304230 1099.277100,271.843506 
	C1115.625610,271.843506 1131.700928,271.843506 1148.000000,271.843506 
	C1148.000000,269.477203 1148.000000,267.500092 1148.000000,264.558655 
M1373.023193,264.244904 
	C1372.470703,261.939667 1371.323364,260.840302 1368.643066,260.888580 
	C1365.998169,260.936218 1364.492310,261.609161 1363.347534,264.120300 
	C1354.973267,282.491852 1346.491943,300.814941 1337.974854,319.120850 
	C1333.269043,329.234955 1328.429199,339.286560 1323.349487,349.999481 
	C1328.352173,349.999481 1332.507812,350.290527 1336.583252,349.846252 
	C1338.068237,349.684357 1339.952026,348.052521 1340.640015,346.608337 
	C1343.382935,340.849976 1345.726196,334.901215 1348.188599,329.091431 
	C1361.839844,329.091431 1375.140015,329.091431 1388.354126,329.091431 
	C1391.498779,336.133636 1394.595093,343.067871 1397.602295,349.802155 
	C1402.759644,349.802155 1407.650024,349.802155 1413.097900,349.802155 
	C1399.756226,321.263885 1386.591187,293.103485 1373.023193,264.244904 
M709.039307,291.575317 
	C700.226501,310.519562 691.413635,329.463806 682.325562,348.999756 
	C687.333557,348.999756 691.336853,349.224701 695.288696,348.872620 
	C696.597412,348.756012 698.304321,347.418823 698.920471,346.185669 
	C701.912537,340.196777 704.596130,334.053741 707.317200,328.121796 
	C721.013733,328.121796 734.313171,328.121796 747.421875,328.121796 
	C748.940552,331.663574 750.897461,334.912415 751.730469,338.427582 
	C753.847717,347.362305 759.061768,350.882812 768.030396,349.031342 
	C769.141907,348.801880 770.341614,349.000000 771.705627,349.000000 
	C770.568420,346.193268 769.609680,343.482452 768.398010,340.889801 
	C756.313538,315.032043 744.163086,289.205017 732.119751,263.328125 
	C731.171692,261.291107 730.540894,259.895294 727.764709,259.860779 
	C724.787476,259.823792 723.258545,260.917908 722.127869,263.421295 
	C717.971802,272.623627 713.740234,281.791901 709.039307,291.575317 
M946.027222,265.278381 
	C945.212219,259.819122 941.729919,259.133362 937.095520,260.353668 
	C923.376770,289.728760 909.636047,319.150818 895.695862,349.000000 
	C900.073242,349.000000 903.741333,348.828918 907.384583,349.056763 
	C910.064697,349.224396 911.655090,348.426147 912.668396,345.846710 
	C914.656738,340.785309 916.756470,335.754517 919.131226,330.867157 
	C919.740784,329.612701 921.535034,328.143860 922.806702,328.123383 
	C935.447815,327.920044 948.093506,328.000183 960.700256,328.000183 
	C963.239807,333.992432 965.567871,339.808472 968.205261,345.480713 
	C968.860901,346.890869 970.432556,348.709778 971.728760,348.835083 
	C976.074829,349.255280 980.486694,348.994598 985.498230,348.994598 
	C972.229004,320.782867 959.334778,293.368347 946.027222,265.278381 
M956.000000,145.500000 
	C956.000000,148.662750 956.101990,151.829483 955.978333,154.987381 
	C955.734314,161.222305 955.338806,167.451111 955.053894,173.684647 
	C954.533386,185.074417 946.279846,189.400711 937.322571,192.956238 
	C934.428345,194.105042 932.873108,195.144180 934.850403,198.504181 
	C936.463562,201.245285 937.970825,204.245773 938.610474,207.321442 
	C939.917175,213.604752 943.471130,212.766037 947.808350,211.004318 
	C965.525696,203.807800 976.016663,192.369431 976.004028,171.316559 
	C975.987488,143.684021 976.000000,116.051468 976.000000,88.418922 
	C976.000000,86.663574 976.000000,84.908234 976.000000,83.311157 
	C968.962891,83.311157 962.560242,83.311157 956.000000,83.311157 
	C956.000000,103.914612 956.000000,124.207306 956.000000,145.500000 
M1034.500732,285.999786 
	C1023.122375,301.720490 1011.525818,317.290558 1000.505981,333.258698 
	C997.422668,337.726562 991.734131,341.721832 994.460632,348.766846 
	C1017.848694,348.766846 1041.264526,348.766846 1064.763672,348.766846 
	C1064.763672,344.791046 1064.763672,341.052307 1064.763672,336.923401 
	C1047.509766,336.923401 1030.487549,336.923401 1013.346436,336.923401 
	C1013.659119,335.938538 1013.705933,335.246033 1014.053345,334.775635 
	C1028.583862,315.104980 1043.244751,295.529480 1057.617432,275.744598 
	C1060.938965,271.172485 1066.571167,267.323090 1064.694336,260.276978 
	C1042.056274,260.276978 1019.641846,260.276978 997.281616,260.276978 
	C997.281616,264.300873 997.281616,268.041718 997.281616,272.114471 
	C1012.642578,272.114471 1027.725464,272.114471 1044.112427,272.114471 
	C1040.710327,277.110504 1037.864136,281.290253 1034.500732,285.999786 
M804.599792,337.000000 
	C802.825806,337.000000 801.051758,337.000000 798.890503,337.000000 
	C798.890503,311.089935 798.890503,285.684143 798.890503,260.256104 
	C794.417297,260.256104 790.345093,260.256104 786.255981,260.256104 
	C786.255981,289.915192 786.255981,319.317444 786.255981,348.744354 
	C806.584595,348.744354 826.656189,348.744354 846.740906,348.744354 
	C846.740906,344.743896 846.740906,341.004425 846.740906,337.000000 
	C832.847778,337.000000 819.212219,337.000000 804.599792,337.000000 
M851.973877,380.740387 
	C852.982910,380.995422 854.160583,381.725189 854.976013,381.435455 
	C871.659180,375.507141 881.895386,364.649658 881.972839,345.564178 
	C882.080872,318.924957 882.000000,292.284912 882.000000,265.645233 
	C882.000000,263.867279 882.000000,262.089294 882.000000,260.234009 
	C877.457520,260.234009 873.388672,260.234009 869.000000,260.234009 
	C869.000000,262.085541 869.000000,263.719330 869.000000,265.353149 
	C869.000000,292.159332 868.986023,318.965546 869.008972,345.771729 
	C869.015442,353.369843 865.849792,359.179871 859.402832,363.162140 
	C855.247192,365.729065 851.027588,368.192383 846.823120,370.710266 
	C848.522644,374.052521 850.049561,377.055328 851.973877,380.740387 
z"/>
<path fill="#FFFFFF" opacity="1.000000" stroke="none" 
	d="
M493.000000,254.000000 
	C502.154419,254.000000 510.808838,254.000000 521.076721,254.000000 
	C446.745056,210.772934 373.662537,168.272293 300.580017,125.771667 
	C300.275665,126.081917 299.971344,126.392166 299.667023,126.702415 
	C313.128265,150.178284 326.589508,173.654144 340.327972,197.613495 
	C252.065964,197.613495 164.254486,197.613495 75.252724,197.613495 
	C77.190842,189.212341 78.662750,180.851700 81.073730,172.771255 
	C87.091377,152.602951 97.366501,134.686630 110.889702,118.587578 
	C129.380173,96.575127 151.444412,79.014442 176.516876,65.023308 
	C203.373749,50.036407 232.063492,39.897888 261.908234,33.236931 
	C276.287170,30.027737 291.109894,28.535025 305.814575,27.136335 
	C319.587952,25.826229 333.490814,24.867794 347.299896,25.215466 
	C362.323364,25.593718 377.326263,27.449112 392.299103,29.029713 
	C416.296783,31.563011 439.478973,37.709538 462.062531,46.029034 
	C488.001587,55.584644 512.613159,67.815536 534.382629,85.042763 
	C543.899292,92.573784 553.142578,100.606956 561.562256,109.327202 
	C571.687988,119.814331 580.230347,131.620972 587.310242,144.530670 
	C594.162720,157.025558 599.252197,170.083588 602.360168,183.904297 
	C603.709656,189.905289 604.489075,196.088089 604.905212,202.230469 
	C605.332397,208.535278 605.000793,214.891541 604.999817,221.225296 
	C604.997437,237.689316 600.574341,253.175400 594.316833,268.190948 
	C584.509033,291.725464 569.303040,311.517914 550.713013,328.655090 
	C531.557922,346.313171 509.707092,360.065369 486.069641,371.004639 
	C463.392334,381.499481 439.951324,389.680115 415.289062,393.956360 
	C401.867859,396.283508 388.398834,398.672272 374.848541,399.830994 
	C358.576355,401.222412 342.137085,402.528442 325.872803,401.743744 
	C294.906281,400.249603 264.360779,395.673553 234.532394,386.385834 
	C205.609772,377.380188 178.382401,365.027008 153.619492,347.748627 
	C131.985062,332.653168 113.147781,314.384644 98.712967,292.090302 
	C91.146317,280.403717 84.687569,268.058258 81.057159,254.000000 
	C218.310287,254.000000 355.405151,254.000000 493.000000,254.000000 
z"/>
<path fill="#FFFFFF" opacity="1.000000" stroke="none" 
	d="
M1387.265869,102.235016 
	C1392.491455,96.684914 1397.685791,91.573303 1402.351562,86.017845 
	C1405.526001,82.238152 1409.067871,81.150757 1413.805420,82.391281 
	C1413.805420,113.747475 1413.805420,145.147690 1413.805420,176.774048 
	C1406.925659,176.774048 1400.190674,176.774048 1392.919434,176.774048 
	C1392.919434,158.837997 1392.919434,141.007339 1392.919434,122.150414 
	C1385.376831,130.215652 1378.647949,137.506470 1371.803833,144.687485 
	C1368.551270,148.100113 1365.446777,148.076721 1362.162476,144.664047 
	C1356.318237,138.591461 1350.626953,132.371445 1344.767456,126.313904 
	C1343.658325,125.167305 1342.065552,124.488670 1339.939697,123.100151 
	C1339.939697,141.705856 1339.939697,159.140686 1339.939697,176.785675 
	C1333.234741,176.785675 1326.833008,176.785675 1320.214966,176.785675 
	C1320.214966,145.240829 1320.214966,113.844772 1320.214966,82.433647 
	C1325.089722,80.985741 1328.543213,82.621849 1331.921875,86.267250 
	C1341.499023,96.600441 1351.461670,106.575661 1361.206055,116.755432 
	C1362.999512,118.628952 1364.481445,120.800629 1365.542114,122.127853 
	C1372.762939,115.520523 1379.886108,109.002457 1387.265869,102.235016 
z"/>
<path fill="#FFFFFF" opacity="1.000000" stroke="none" 
	d="
M1124.025024,147.967499 
	C1117.765625,167.187225 1096.996338,179.408127 1078.879028,179.203369 
	C1057.898804,178.966263 1041.940796,170.654663 1033.195923,151.846375 
	C1019.629517,122.667900 1033.537231,87.367661 1069.138062,81.386703 
	C1094.399658,77.142754 1117.441772,88.626060 1125.514038,116.344299 
	C1128.483032,126.539192 1128.389404,137.336975 1124.025024,147.967499 
M1052.947632,115.516769 
	C1048.998047,122.439507 1048.186157,129.753754 1049.991333,137.481415 
	C1053.392578,152.041977 1068.547852,162.686600 1083.697388,159.245743 
	C1097.232544,156.171555 1106.817139,142.815689 1106.153687,128.864273 
	C1105.536011,115.871483 1098.082031,103.614021 1082.624878,100.395454 
	C1072.160278,98.216469 1060.416748,102.497513 1052.947632,115.516769 
z"/>
<path fill="#FFFFFF" opacity="1.000000" stroke="none" 
	d="
M720.266357,110.765411 
	C728.887207,119.847504 737.251831,128.680496 745.616394,137.513489 
	C746.014099,137.305771 746.411743,137.098038 746.809448,136.890320 
	C746.809448,119.071053 746.809448,101.251785 746.809448,83.219849 
	C753.753357,83.219849 760.154846,83.219849 766.778992,83.219849 
	C766.778992,114.744377 766.778992,146.137970 766.778992,177.569000 
	C761.938477,178.994827 758.526733,177.341400 755.095154,173.753647 
	C739.922241,157.889786 724.462769,142.300079 709.125183,126.593437 
	C708.026672,125.468483 707.073303,124.201698 705.419800,122.256683 
	C705.419800,140.808624 705.419800,158.589264 705.419800,176.683228 
	C698.450012,176.683228 692.044678,176.683228 685.317871,176.683228 
	C685.317871,145.324875 685.317871,113.805817 685.317871,82.455658 
	C693.149475,79.612030 696.353699,85.968048 700.471802,90.059647 
	C707.158569,96.703377 713.514465,103.680138 720.266357,110.765411 
z"/>
<path fill="#FFFFFF" opacity="1.000000" stroke="none" 
	d="
M847.000427,83.000000 
	C863.140930,83.000000 878.781433,83.000000 894.710571,83.000000 
	C894.710571,88.946014 894.710571,94.684227 894.710571,100.822350 
	C879.717651,100.822350 864.644531,100.822350 849.287537,100.822350 
	C849.287537,107.615463 849.287537,114.020950 849.287537,120.826523 
	C862.619202,120.826523 876.026550,120.826523 889.714844,120.826523 
	C889.714844,126.620125 889.714844,132.024780 889.714844,137.831573 
	C876.375854,137.831573 862.968384,137.831573 849.282654,137.831573 
	C849.282654,144.959808 849.282654,151.697266 849.282654,158.835312 
	C864.295898,158.835312 879.368958,158.835312 894.718994,158.835312 
	C894.718994,164.963379 894.718994,170.701279 894.718994,176.721588 
	C872.698975,176.721588 850.631348,176.721588 828.281250,176.721588 
	C828.281250,145.705627 828.281250,114.640129 828.281250,83.000000 
	C834.306335,83.000000 840.403442,83.000000 847.000427,83.000000 
z"/>
<path fill="#FFFFFF" opacity="1.000000" stroke="none" 
	d="
M1237.775879,175.988464 
	C1220.786133,181.690262 1204.965820,180.579102 1191.038330,169.335068 
	C1183.458618,163.215729 1179.405518,154.325058 1179.158325,144.693649 
	C1178.637329,124.380867 1179.000000,104.045425 1179.000000,83.359680 
	C1185.461914,83.359680 1191.872803,83.359680 1198.718140,83.359680 
	C1198.794922,84.298485 1198.985229,85.552559 1198.986694,86.806854 
	C1199.006592,103.469482 1198.811279,120.135757 1199.131348,136.792267 
	C1199.212524,141.011719 1200.358887,145.432617 1201.997437,149.350449 
	C1204.744507,155.919022 1213.371338,160.845642 1219.980957,159.917725 
	C1230.828735,158.394821 1236.784912,154.743713 1239.747803,145.595734 
	C1240.191406,144.226181 1239.990356,142.629517 1239.991333,141.137833 
	C1240.004395,121.983955 1240.000000,102.830086 1240.000000,83.338203 
	C1246.841187,83.338203 1253.583496,83.338203 1260.777588,83.338203 
	C1260.842773,84.518356 1260.988525,85.942665 1260.989868,87.367096 
	C1261.005737,104.196358 1261.013916,121.025658 1260.995972,137.854919 
	C1260.977661,155.094086 1254.182495,168.294891 1237.775879,175.988464 
z"/>
<path fill="#FFFFFF" opacity="1.000000" stroke="none" 
	d="
M1262.000000,339.971619 
	C1262.000000,343.444641 1262.000000,346.422943 1262.000000,349.699860 
	C1257.746460,349.699860 1253.675659,349.699860 1249.299805,349.699860 
	C1249.299805,320.430695 1249.299805,291.045410 1249.299805,261.000000 
	C1260.863647,261.000000 1272.609253,260.828949 1284.345337,261.092194 
	C1288.485229,261.185059 1292.797119,261.769867 1296.694092,263.109009 
	C1312.848267,268.660095 1318.788818,284.730133 1311.034912,299.302582 
	C1306.142334,308.497559 1297.100586,311.821869 1287.244507,312.949188 
	C1284.356689,313.279510 1281.398926,313.000000 1277.644287,313.000000 
	C1291.495728,325.434509 1304.699585,337.287659 1318.860229,349.999725 
	C1311.841797,349.999725 1306.099243,350.141052 1300.372925,349.898529 
	C1298.973022,349.839264 1297.380371,348.780273 1296.293579,347.743622 
	C1286.343750,338.253387 1276.503296,328.648651 1266.576904,319.133698 
	C1265.512939,318.113800 1264.105103,317.452667 1262.000000,316.057190 
	C1262.000000,324.622131 1262.000000,332.049530 1262.000000,339.971619 
M1293.903564,299.622864 
	C1299.471191,296.670563 1301.565796,291.890930 1300.976685,285.827484 
	C1300.512085,281.047455 1295.253662,274.752869 1289.956177,274.168152 
	C1280.732056,273.150055 1271.404785,273.066956 1262.000000,272.585754 
	C1262.000000,281.345825 1261.887939,288.996643 1262.098022,296.638580 
	C1262.138184,298.102051 1263.262085,300.648315 1264.198486,300.803009 
	C1273.884277,302.402679 1283.672485,304.735138 1293.903564,299.622864 
z"/>
<path fill="#FFFFFF" opacity="1.000000" stroke="none" 
	d="
M1230.764160,337.029114 
	C1231.593262,340.893738 1231.940796,344.732971 1232.309082,348.799255 
	C1211.531128,348.799255 1191.461548,348.799255 1171.198486,348.799255 
	C1171.198486,319.197876 1171.198486,289.797241 1171.198486,260.198303 
	C1191.466675,260.198303 1211.536499,260.198303 1231.801025,260.198303 
	C1231.801025,264.133453 1231.801025,267.871094 1231.801025,272.005737 
	C1215.866699,272.005737 1200.125366,272.005737 1184.203979,272.005737 
	C1184.203979,280.473663 1184.203979,288.544220 1184.203979,297.012207 
	C1198.142578,297.012207 1211.884644,297.012207 1225.809326,297.012207 
	C1225.809326,301.356323 1225.809326,305.312592 1225.809326,309.666962 
	C1212.210205,309.666962 1198.469482,309.666962 1184.364746,309.666962 
	C1184.364746,318.788635 1184.364746,327.531219 1184.364746,337.003754 
	C1199.466064,337.003754 1214.874390,337.003754 1230.764160,337.029114 
z"/>
<path fill="#FFFFFF" opacity="1.000000" stroke="none" 
	d="
M1148.000000,265.040802 
	C1148.000000,267.500092 1148.000000,269.477203 1148.000000,271.843506 
	C1131.700928,271.843506 1115.625610,271.843506 1099.277100,271.843506 
	C1099.277100,280.304230 1099.277100,288.376007 1099.277100,296.849487 
	C1113.308716,296.849487 1127.383301,296.849487 1141.726562,296.849487 
	C1141.726562,301.308350 1141.726562,305.381256 1141.726562,309.856812 
	C1127.686401,309.856812 1113.610718,309.856812 1099.269897,309.856812 
	C1099.269897,318.986115 1099.269897,327.724182 1099.269897,336.863190 
	C1115.323730,336.863190 1131.397705,336.863190 1147.733643,336.863190 
	C1147.733643,340.989227 1147.733643,344.728943 1147.733643,348.737122 
	C1127.672241,348.737122 1107.601318,348.737122 1087.264648,348.737122 
	C1087.264648,319.336456 1087.264648,289.935547 1087.264648,260.266937 
	C1107.326416,260.266937 1127.395630,260.266937 1148.000000,260.266937 
	C1148.000000,261.688202 1148.000000,263.123444 1148.000000,265.040802 
z"/>
<path fill="#FFFFFF" opacity="1.000000" stroke="none" 
	d="
M1373.224609,264.593994 
	C1386.591187,293.103485 1399.756226,321.263885 1413.097900,349.802155 
	C1407.650024,349.802155 1402.759644,349.802155 1397.602295,349.802155 
	C1394.595093,343.067871 1391.498779,336.133636 1388.354126,329.091431 
	C1375.140015,329.091431 1361.839844,329.091431 1348.188599,329.091431 
	C1345.726196,334.901215 1343.382935,340.849976 1340.640015,346.608337 
	C1339.952026,348.052521 1338.068237,349.684357 1336.583252,349.846252 
	C1332.507812,350.290527 1328.352173,349.999481 1323.349487,349.999481 
	C1328.429199,339.286560 1333.269043,329.234955 1337.974854,319.120850 
	C1346.491943,300.814941 1354.973267,282.491852 1363.347534,264.120300 
	C1364.492310,261.609161 1365.998169,260.936218 1368.643066,260.888580 
	C1371.323364,260.840302 1372.470703,261.939667 1373.224609,264.593994 
M1370.961914,288.601715 
	C1369.324097,285.043060 1367.641357,285.026550 1366.047852,288.601166 
	C1364.285034,292.555511 1362.619019,296.552856 1360.889771,300.522339 
	C1358.556763,305.878082 1356.203735,311.225220 1353.850708,316.595581 
	C1363.889526,316.595581 1373.394897,316.595581 1383.074585,316.595581 
	C1378.941284,307.255615 1374.988892,298.324615 1370.961914,288.601715 
z"/>
<path fill="#FFFFFF" opacity="1.000000" stroke="none" 
	d="
M709.288208,291.274139 
	C713.740234,281.791901 717.971802,272.623627 722.127869,263.421295 
	C723.258545,260.917908 724.787476,259.823792 727.764709,259.860779 
	C730.540894,259.895294 731.171692,261.291107 732.119751,263.328125 
	C744.163086,289.205017 756.313538,315.032043 768.398010,340.889801 
	C769.609680,343.482452 770.568420,346.193268 771.705627,349.000000 
	C770.341614,349.000000 769.141907,348.801880 768.030396,349.031342 
	C759.061768,350.882812 753.847717,347.362305 751.730469,338.427582 
	C750.897461,334.912415 748.940552,331.663574 747.421875,328.121796 
	C734.313171,328.121796 721.013733,328.121796 707.317200,328.121796 
	C704.596130,334.053741 701.912537,340.196777 698.920471,346.185669 
	C698.304321,347.418823 696.597412,348.756012 695.288696,348.872620 
	C691.336853,349.224701 687.333557,348.999756 682.325562,348.999756 
	C691.413635,329.463806 700.226501,310.519562 709.288208,291.274139 
M722.032959,293.715698 
	C718.977356,301.002960 715.921692,308.290192 712.752380,315.848572 
	C722.461792,315.848572 731.570862,315.848572 741.118225,315.848572 
	C740.884888,314.415253 740.924255,313.091125 740.449158,311.988739 
	C737.033569,304.063904 733.544312,296.170197 729.994080,288.304688 
	C729.453430,287.106781 728.476868,286.105652 727.701904,285.013550 
	C726.783936,286.131195 725.754395,287.177002 724.976318,288.384766 
	C724.021301,289.867096 723.276367,291.484802 722.032959,293.715698 
z"/>
<path fill="#FFFFFF" opacity="1.000000" stroke="none" 
	d="
M946.233887,265.616089 
	C959.334778,293.368347 972.229004,320.782867 985.498230,348.994598 
	C980.486694,348.994598 976.074829,349.255280 971.728760,348.835083 
	C970.432556,348.709778 968.860901,346.890869 968.205261,345.480713 
	C965.567871,339.808472 963.239807,333.992432 960.700256,328.000183 
	C948.093506,328.000183 935.447815,327.920044 922.806702,328.123383 
	C921.535034,328.143860 919.740784,329.612701 919.131226,330.867157 
	C916.756470,335.754517 914.656738,340.785309 912.668396,345.846710 
	C911.655090,348.426147 910.064697,349.224396 907.384583,349.056763 
	C903.741333,348.828918 900.073242,349.000000 895.695862,349.000000 
	C909.636047,319.150818 923.376770,289.728760 937.095520,260.353668 
	C941.729919,259.133362 945.212219,259.819122 946.233887,265.616089 
M928.033203,310.639984 
	C927.349915,312.222687 926.666565,313.805359 925.888367,315.607788 
	C935.767273,315.607788 945.324341,315.607788 955.240417,315.607788 
	C951.026367,305.943237 947.049255,296.726501 942.952759,287.563080 
	C942.502075,286.554901 941.367493,285.852509 940.550049,285.008301 
	C939.733215,285.862335 938.600281,286.576385 938.150146,287.592834 
	C934.857788,295.027802 931.702332,302.523376 928.033203,310.639984 
z"/>
<path fill="#FFFFFF" opacity="1.000000" stroke="none" 
	d="
M956.000000,145.000000 
	C956.000000,124.207306 956.000000,103.914612 956.000000,83.311157 
	C962.560242,83.311157 968.962891,83.311157 976.000000,83.311157 
	C976.000000,84.908234 976.000000,86.663574 976.000000,88.418922 
	C976.000000,116.051468 975.987488,143.684021 976.004028,171.316559 
	C976.016663,192.369431 965.525696,203.807800 947.808350,211.004318 
	C943.471130,212.766037 939.917175,213.604752 938.610474,207.321442 
	C937.970825,204.245773 936.463562,201.245285 934.850403,198.504181 
	C932.873108,195.144180 934.428345,194.105042 937.322571,192.956238 
	C946.279846,189.400711 954.533386,185.074417 955.053894,173.684647 
	C955.338806,167.451111 955.734314,161.222305 955.978333,154.987381 
	C956.101990,151.829483 956.000000,148.662750 956.000000,145.000000 
z"/>
<path fill="#FFFFFF" opacity="1.000000" stroke="none" 
	d="
M1034.759277,285.734894 
	C1037.864136,281.290253 1040.710327,277.110504 1044.112427,272.114471 
	C1027.725464,272.114471 1012.642578,272.114471 997.281616,272.114471 
	C997.281616,268.041718 997.281616,264.300873 997.281616,260.276978 
	C1019.641846,260.276978 1042.056274,260.276978 1064.694336,260.276978 
	C1066.571167,267.323090 1060.938965,271.172485 1057.617432,275.744598 
	C1043.244751,295.529480 1028.583862,315.104980 1014.053345,334.775635 
	C1013.705933,335.246033 1013.659119,335.938538 1013.346436,336.923401 
	C1030.487549,336.923401 1047.509766,336.923401 1064.763672,336.923401 
	C1064.763672,341.052307 1064.763672,344.791046 1064.763672,348.766846 
	C1041.264526,348.766846 1017.848694,348.766846 994.460632,348.766846 
	C991.734131,341.721832 997.422668,337.726562 1000.505981,333.258698 
	C1011.525818,317.290558 1023.122375,301.720490 1034.759277,285.734894 
z"/>
<path fill="#FFFFFF" opacity="1.000000" stroke="none" 
	d="
M805.088257,337.000000 
	C819.212219,337.000000 832.847778,337.000000 846.740906,337.000000 
	C846.740906,341.004425 846.740906,344.743896 846.740906,348.744354 
	C826.656189,348.744354 806.584595,348.744354 786.255981,348.744354 
	C786.255981,319.317444 786.255981,289.915192 786.255981,260.256104 
	C790.345093,260.256104 794.417297,260.256104 798.890503,260.256104 
	C798.890503,285.684143 798.890503,311.089935 798.890503,337.000000 
	C801.051758,337.000000 802.825806,337.000000 805.088257,337.000000 
z"/>
<path fill="#FFFFFF" opacity="1.000000" stroke="none" 
	d="
M851.775146,380.399231 
	C850.049561,377.055328 848.522644,374.052521 846.823120,370.710266 
	C851.027588,368.192383 855.247192,365.729065 859.402832,363.162140 
	C865.849792,359.179871 869.015442,353.369843 869.008972,345.771729 
	C868.986023,318.965546 869.000000,292.159332 869.000000,265.353149 
	C869.000000,263.719330 869.000000,262.085541 869.000000,260.234009 
	C873.388672,260.234009 877.457520,260.234009 882.000000,260.234009 
	C882.000000,262.089294 882.000000,263.867279 882.000000,265.645233 
	C882.000000,292.284912 882.080872,318.924957 881.972839,345.564178 
	C881.895386,364.649658 871.659180,375.507141 854.976013,381.435455 
	C854.160583,381.725189 852.982910,380.995422 851.775146,380.399231 
z"/>
<path fill="#000000" opacity="1.000000" stroke="none" 
	d="
M1052.985107,115.132690 
	C1060.416748,102.497513 1072.160278,98.216469 1082.624878,100.395454 
	C1098.082031,103.614021 1105.536011,115.871483 1106.153687,128.864273 
	C1106.817139,142.815689 1097.232544,156.171555 1083.697388,159.245743 
	C1068.547852,162.686600 1053.392578,152.041977 1049.991333,137.481415 
	C1048.186157,129.753754 1048.998047,122.439507 1052.985107,115.132690 
z"/>
<path fill="#000000" opacity="1.000000" stroke="none" 
	d="
M1293.550049,299.802460 
	C1283.672485,304.735138 1273.884277,302.402679 1264.198486,300.803009 
	C1263.262085,300.648315 1262.138184,298.102051 1262.098022,296.638580 
	C1261.887939,288.996643 1262.000000,281.345825 1262.000000,272.585754 
	C1271.404785,273.066956 1280.732056,273.150055 1289.956177,274.168152 
	C1295.253662,274.752869 1300.512085,281.047455 1300.976685,285.827484 
	C1301.565796,291.890930 1299.471191,296.670563 1293.550049,299.802460 
z"/>
<path fill="#000000" opacity="1.000000" stroke="none" 
	d="
M1370.999268,288.997681 
	C1374.988892,298.324615 1378.941284,307.255615 1383.074585,316.595581 
	C1373.394897,316.595581 1363.889526,316.595581 1353.850708,316.595581 
	C1356.203735,311.225220 1358.556763,305.878082 1360.889771,300.522339 
	C1362.619019,296.552856 1364.285034,292.555511 1366.047852,288.601166 
	C1367.641357,285.026550 1369.324097,285.043060 1370.999268,288.997681 
z"/>
<path fill="#000000" opacity="1.000000" stroke="none" 
	d="
M722.236816,293.379822 
	C723.276367,291.484802 724.021301,289.867096 724.976318,288.384766 
	C725.754395,287.177002 726.783936,286.131195 727.701904,285.013550 
	C728.476868,286.105652 729.453430,287.106781 729.994080,288.304688 
	C733.544312,296.170197 737.033569,304.063904 740.449158,311.988739 
	C740.924255,313.091125 740.884888,314.415253 741.118225,315.848572 
	C731.570862,315.848572 722.461792,315.848572 712.752380,315.848572 
	C715.921692,308.290192 718.977356,301.002960 722.236816,293.379822 
z"/>
<path fill="#000000" opacity="1.000000" stroke="none" 
	d="
M928.268433,310.319916 
	C931.702332,302.523376 934.857788,295.027802 938.150146,287.592834 
	C938.600281,286.576385 939.733215,285.862335 940.550049,285.008301 
	C941.367493,285.852509 942.502075,286.554901 942.952759,287.563080 
	C947.049255,296.726501 951.026367,305.943237 955.240417,315.607788 
	C945.324341,315.607788 935.767273,315.607788 925.888367,315.607788 
	C926.666565,313.805359 927.349915,312.222687 928.268433,310.319916 
z"/>
</svg>